<svg width="687" height="459" viewBox="0 0 687 459" fill="none" xmlns="http://www.w3.org/2000/svg">
<path d="M309.756 166.377C336.347 150.726 345.619 115.391 321.814 95.76C311.984 87.6531 301.169 80.7076 289.574 75.11C261.075 61.3529 229.138 56.3554 197.799 60.7495C166.461 65.1437 137.129 78.7321 113.514 99.7963C89.8978 120.861 73.0587 148.455 65.1257 179.089C57.1926 209.724 58.5219 242.023 68.9454 271.902C79.369 301.781 98.4186 327.898 123.685 346.95C148.952 366.003 179.301 377.135 210.895 378.939C223.75 379.673 236.576 378.85 249.105 376.533C279.447 370.923 288.49 335.53 272.839 308.939L258.919 285.292C250.955 271.761 232.94 268.279 217.265 267.384C207.735 266.84 198.58 263.482 190.959 257.735C183.337 251.988 177.591 244.11 174.447 235.097C171.303 226.084 170.902 216.341 173.295 207.101C175.688 197.86 180.767 189.536 187.891 183.182C195.014 176.829 203.862 172.73 213.315 171.404C222.768 170.079 232.402 171.586 240.998 175.736C255.137 182.562 272.578 188.261 286.109 180.297L309.756 166.377Z" fill="url(#paint0_linear_107_2)" fill-opacity="0.15"/>
<path d="M491.813 372.842L483.525 371.671V331.035L491.813 331.915V372.842Z" fill="#999999" stroke="#263238" stroke-linecap="round" stroke-linejoin="round"/>
<path d="M678.147 351.684L297.17 311.276V80.2237L678.147 30.9568V351.684Z" fill="white" stroke="#263238" stroke-linecap="round" stroke-linejoin="round"/>
<path d="M681.401 30.5425L293.896 80.6694C291.223 81.0217 289.047 79.6333 289.047 77.4678V73.9347C289.047 71.8625 291.223 69.7902 293.896 69.4172L681.401 14.8247C684.074 14.4413 686.25 16.555 686.25 19.539V24.5123C686.275 25.926 685.804 27.3038 684.917 28.4057C684.031 29.5076 682.787 30.2638 681.401 30.5425Z" fill="#999999" stroke="#263238" stroke-linecap="round" stroke-linejoin="round"/>
<path d="M671.071 20.5025L677.847 19.5286" stroke="white" stroke-linecap="round" stroke-linejoin="round"/>
<path d="M652.866 23.1135L663.227 21.6318" stroke="white" stroke-linecap="round" stroke-linejoin="round"/>
<path d="M329.238 69.2514L646.753 23.9631" stroke="white" stroke-linecap="round" stroke-linejoin="round"/>
<path d="M297.471 73.7897L321.042 70.4224" stroke="white" stroke-linecap="round" stroke-linejoin="round"/>
<path d="M525.052 317.431L460.254 311.597V220.078L525.104 219.933L525.052 317.431Z" fill="#7E8AF5"/>
<path opacity="0.8" d="M525.052 317.431L460.254 311.597V220.078L525.104 219.933L525.052 317.431Z" fill="white"/>
<path d="M589.902 323.264L525.052 317.431V219.974L589.902 219.84V323.264Z" fill="#7E8AF5"/>
<path opacity="0.6" d="M589.902 323.264L525.052 317.431V219.974L589.902 219.84V323.264Z" fill="white"/>
<path d="M654.742 329.097L589.902 323.264V219.798L654.742 219.653V329.097Z" fill="#7E8AF5"/>
<path opacity="0.4" d="M654.742 329.097L589.902 323.264V219.798L654.742 219.653V329.097Z" fill="white"/>
<path d="M654.742 219.653L460.254 220.078" stroke="#7F7F7F" stroke-linecap="round" stroke-linejoin="round"/>
<path d="M460.254 233.154L654.793 235.288" stroke="#7F7F7F" stroke-linecap="round" stroke-linejoin="round"/>
<path d="M654.742 250.923L460.254 246.229" stroke="#7F7F7F" stroke-linecap="round" stroke-linejoin="round"/>
<path d="M460.254 259.346L654.793 266.599" stroke="#7F7F7F" stroke-linecap="round" stroke-linejoin="round"/>
<path d="M654.742 282.193L460.254 272.37" stroke="#7F7F7F" stroke-linecap="round" stroke-linejoin="round"/>
<path d="M460.254 285.446L654.793 297.828" stroke="#7F7F7F" stroke-linecap="round" stroke-linejoin="round"/>
<path d="M654.742 313.462L460.254 298.522" stroke="#7F7F7F" stroke-linecap="round" stroke-linejoin="round"/>
<path d="M460.254 311.597L654.793 329.097" stroke="#7F7F7F" stroke-linecap="round" stroke-linejoin="round"/>
<path d="M476.417 313.058V220.036" stroke="#7F7F7F" stroke-linecap="round" stroke-linejoin="round"/>
<path d="M460.254 220.078V311.597" stroke="#7F7F7F" stroke-linecap="round" stroke-linejoin="round"/>
<path d="M508.837 315.97V219.974" stroke="#7F7F7F" stroke-linecap="round" stroke-linejoin="round"/>
<path d="M492.632 219.974V314.478" stroke="#7F7F7F" stroke-linecap="round" stroke-linejoin="round"/>
<path d="M541.267 318.892V219.902" stroke="#7F7F7F" stroke-linecap="round" stroke-linejoin="round"/>
<path d="M525.052 219.974V317.472" stroke="#7F7F7F" stroke-linecap="round" stroke-linejoin="round"/>
<path d="M573.687 321.803V219.829" stroke="#7F7F7F" stroke-linecap="round" stroke-linejoin="round"/>
<path d="M557.472 219.86V320.363" stroke="#7F7F7F" stroke-linecap="round" stroke-linejoin="round"/>
<path d="M606.107 324.725V219.757" stroke="#7F7F7F" stroke-linecap="round" stroke-linejoin="round"/>
<path d="M589.902 219.798V323.264" stroke="#7F7F7F" stroke-linecap="round" stroke-linejoin="round"/>
<path d="M638.537 327.636V219.684" stroke="#7F7F7F" stroke-linecap="round" stroke-linejoin="round"/>
<path d="M622.322 219.726V326.186" stroke="#7F7F7F" stroke-linecap="round" stroke-linejoin="round"/>
<path d="M654.742 219.653V329.097" stroke="#7F7F7F" stroke-linecap="round" stroke-linejoin="round"/>
<path d="M460.254 220.078V311.597L654.793 329.097V219.653L460.254 220.078Z" stroke="#263238" stroke-linecap="round" stroke-linejoin="round"/>
<path d="M468.315 311.929L463.445 311.494V285.249L468.315 285.56V311.929Z" fill="#263238"/>
<path d="M473.174 312.375L468.315 311.929V272.391L473.174 272.64V312.375Z" fill="#7E8AF5"/>
<path d="M484.519 313.39L479.66 312.955V266.33L484.519 266.537V313.39Z" fill="#263238"/>
<path d="M489.389 313.825L484.519 313.39V259.813L489.389 259.989V313.825Z" fill="#7E8AF5"/>
<path d="M500.734 314.84L495.875 314.405V273.769L500.734 274.018V314.84Z" fill="#263238"/>
<path d="M505.594 315.296L500.734 314.861V267.2L505.594 267.407V315.296Z" fill="#7E8AF5"/>
<path d="M516.95 316.332L512.08 315.897V288.357L516.95 288.668V316.332Z" fill="#263238" stroke="#263238" stroke-linecap="round" stroke-linejoin="round"/>
<path d="M521.809 316.726L516.95 316.291V283.135L521.809 283.415V316.726Z" fill="#7E8AF5" stroke="#7E8AF5" stroke-linecap="round" stroke-linejoin="round"/>
<path d="M533.154 317.741L528.295 317.306V270.132L533.154 270.35V317.741Z" fill="#263238"/>
<path d="M538.024 318.177L533.154 317.741V279.281L538.024 279.54V318.177Z" fill="#7E8AF5"/>
<path d="M549.359 319.192L544.5 318.757V277.851L549.359 278.1V319.192Z" fill="#263238"/>
<path d="M554.229 319.627L549.369 319.192V271.075L554.229 271.293V319.627Z" fill="#7E8AF5"/>
<path d="M565.585 320.643L560.715 320.207V269.065L565.585 269.272V320.643Z" fill="#263238"/>
<path d="M570.444 321.078L565.585 320.642V273.095L570.444 273.323V321.078Z" fill="#7E8AF5"/>
<path d="M581.789 322.093L576.93 321.658V258.663L581.789 258.828V322.093Z" fill="#263238"/>
<path d="M586.659 322.549L581.789 322.103V251.337L586.659 251.472V322.549Z" fill="#7E8AF5"/>
<path d="M598.056 323.585L593.197 323.15V263.822L598.056 263.998V323.585Z" fill="#263238"/>
<path d="M602.864 260.538V323.989L598.056 323.585V260.383L602.864 260.538Z" fill="#7E8AF5"/>
<path d="M614.22 325.005L609.35 324.57V256.394L614.22 256.539V325.005Z" fill="#263238"/>
<path d="M619.079 325.44L614.219 325.005V257.948L619.079 258.093V325.44Z" fill="#7E8AF5"/>
<path d="M630.424 326.455L625.565 326.02V246.913L630.424 247.017V326.455Z" fill="#263238"/>
<path d="M635.294 326.89L630.424 326.455V242.655L635.294 242.738V326.89Z" fill="#7E8AF5"/>
<path d="M646.639 327.906L641.77 327.471V234.687L646.639 234.739V327.906Z" fill="#263238"/>
<path d="M651.499 328.341L646.639 327.906V230.812H651.499V328.341Z" fill="#7E8AF5"/>
<path d="M526.43 269.034L512.329 268.412C511.557 268.416 510.811 268.133 510.237 267.618C509.662 267.103 509.3 266.393 509.22 265.625V256.632C509.252 256.259 509.359 255.896 509.534 255.564C509.708 255.233 509.948 254.94 510.237 254.702C510.527 254.465 510.861 254.288 511.22 254.181C511.579 254.075 511.956 254.041 512.329 254.083L526.43 254.508C527.206 254.489 527.959 254.767 528.537 255.285C529.114 255.803 529.473 256.522 529.538 257.295V266.475C529.51 266.85 529.406 267.216 529.233 267.549C529.06 267.883 528.821 268.179 528.531 268.418C528.24 268.657 527.904 268.835 527.543 268.941C527.182 269.047 526.804 269.078 526.43 269.034Z" fill="white" stroke="#263238" stroke-linecap="round" stroke-linejoin="round"/>
<path d="M513.282 264.973C512.804 264.906 512.369 264.662 512.062 264.29C511.755 263.918 511.599 263.444 511.624 262.963V262.455H513.075V263.077C513.075 263.584 513.375 263.812 513.862 263.833C514.349 263.854 514.649 263.646 514.649 263.118C514.649 262.59 514.37 262.082 513.344 261.367C512.101 260.486 511.665 259.813 511.665 258.911C511.649 258.683 511.677 258.454 511.749 258.237C511.822 258.02 511.936 257.819 512.087 257.647C512.237 257.474 512.42 257.333 512.625 257.232C512.83 257.131 513.053 257.071 513.282 257.057V256.342H514.525V257.057C515 257.121 515.433 257.363 515.737 257.734C516.041 258.105 516.193 258.578 516.162 259.056V259.347H514.722V259.025C514.734 258.922 514.722 258.818 514.688 258.72C514.653 258.622 514.597 258.533 514.523 258.46C514.449 258.387 514.36 258.332 514.261 258.299C514.163 258.266 514.058 258.256 513.955 258.269C513.468 258.269 513.199 258.466 513.199 258.942C513.199 259.419 513.479 259.906 514.504 260.642C515.748 261.543 516.183 262.206 516.183 263.159C516.203 263.394 516.175 263.63 516.102 263.854C516.029 264.078 515.911 264.285 515.757 264.463C515.602 264.641 515.414 264.786 515.202 264.889C514.991 264.993 514.76 265.053 514.525 265.066V265.895H513.282V264.973Z" fill="#263238"/>
<path d="M524.731 262.175V256.735L521.353 256.621V262.04L518.939 261.957C520.586 263.812 521.405 264.744 523.083 266.609L527.176 262.258L524.731 262.175Z" fill="#999999" stroke="#263238" stroke-linecap="round" stroke-linejoin="round"/>
<path d="M616.406 247.949L602.294 247.628C601.497 247.629 600.731 247.325 600.153 246.777C599.574 246.229 599.228 245.481 599.186 244.685V234.894C599.221 234.104 599.567 233.361 600.15 232.827C600.733 232.292 601.504 232.011 602.294 232.045L616.406 232.169C617.204 232.168 617.972 232.474 618.55 233.024C619.129 233.574 619.474 234.325 619.514 235.122V245.069C619.503 245.463 619.414 245.852 619.251 246.212C619.089 246.571 618.855 246.895 618.566 247.163C618.276 247.431 617.936 247.639 617.565 247.774C617.194 247.909 616.8 247.969 616.406 247.949Z" fill="white" stroke="#263238" stroke-linecap="round" stroke-linejoin="round"/>
<path d="M603.237 243.857C602.743 243.77 602.301 243.502 601.995 243.105C601.69 242.708 601.546 242.211 601.589 241.712V241.121H603.03V241.805C603.018 241.913 603.031 242.021 603.067 242.123C603.103 242.225 603.161 242.318 603.238 242.394C603.314 242.471 603.407 242.529 603.509 242.565C603.611 242.601 603.72 242.614 603.827 242.603C603.935 242.619 604.046 242.609 604.149 242.575C604.253 242.54 604.347 242.482 604.424 242.404C604.5 242.326 604.558 242.231 604.591 242.127C604.624 242.023 604.632 241.913 604.615 241.805C604.615 241.163 604.335 240.696 603.309 239.94C602.066 239.008 601.631 238.282 601.631 237.308C601.58 236.823 601.719 236.336 602.018 235.95C602.317 235.564 602.754 235.308 603.237 235.236V234.48H604.49V235.267C604.982 235.347 605.425 235.61 605.73 236.005C606.034 236.4 606.176 236.895 606.127 237.391V237.64H604.687V237.288C604.704 237.181 604.695 237.073 604.663 236.97C604.631 236.867 604.576 236.774 604.502 236.696C604.428 236.618 604.337 236.557 604.236 236.52C604.136 236.483 604.028 236.469 603.921 236.479C603.817 236.466 603.711 236.476 603.612 236.51C603.513 236.544 603.422 236.6 603.348 236.674C603.274 236.748 603.218 236.838 603.184 236.937C603.151 237.037 603.14 237.142 603.154 237.246C603.154 237.837 603.434 238.282 604.459 239.059C605.713 239.992 606.148 240.717 606.148 241.743C606.19 242.235 606.041 242.724 605.733 243.11C605.424 243.495 604.98 243.748 604.49 243.815V244.706H603.237V243.857Z" fill="#263238"/>
<path d="M611.318 239.464V245.349L614.696 245.421V239.515H617.11L612.966 234.563L608.873 239.391L611.318 239.464Z" fill="#999999" stroke="#263238" stroke-linecap="round" stroke-linejoin="round"/>
<path d="M555.337 167.06C559.666 167.989 564.091 168.396 568.517 168.272C593.435 167.599 616.064 148.887 616.178 124.445C616.25 101.019 592.679 83.1353 568.517 86.5959V127.439C564.151 140.66 559.758 153.867 555.337 167.06Z" fill="#7E8AF5" stroke="#263238" stroke-linecap="round" stroke-linejoin="round"/>
<path d="M568.517 127.439V86.5959C545.256 88.979 520.514 107.225 520.856 130.423C521.146 147.923 536.729 163.796 555.296 167.06C559.751 153.86 564.158 140.653 568.517 127.439Z" fill="#999999" stroke="#263238" stroke-linecap="round" stroke-linejoin="round"/>
<path d="M551.234 110.768C551.204 110.401 551.097 110.044 550.921 109.72C550.744 109.397 550.501 109.114 550.208 108.89C549.915 108.667 549.578 108.507 549.22 108.422C548.861 108.337 548.488 108.328 548.126 108.396C547.348 108.41 546.602 108.708 546.029 109.235C545.456 109.762 545.096 110.481 545.018 111.255V112.892C545.049 113.26 545.157 113.616 545.334 113.939C545.511 114.262 545.754 114.545 546.046 114.769C546.339 114.993 546.675 115.154 547.033 115.241C547.391 115.329 547.763 115.34 548.126 115.275C548.904 115.262 549.65 114.963 550.223 114.436C550.796 113.909 551.156 113.19 551.234 112.416" stroke="#263238" stroke-linecap="round" stroke-linejoin="round"/>
<path d="M542.583 142.266V147.561C542.606 147.807 542.678 148.045 542.796 148.262C542.914 148.479 543.075 148.67 543.268 148.823C543.462 148.976 543.685 149.088 543.923 149.153C544.162 149.217 544.411 149.232 544.655 149.198V149.198C545.166 149.201 545.66 149.016 546.042 148.677C546.425 148.339 546.669 147.871 546.727 147.364V134.029C546.752 133.684 546.901 133.359 547.147 133.115C547.392 132.871 547.718 132.725 548.064 132.703C548.234 132.667 548.411 132.668 548.581 132.705C548.751 132.742 548.912 132.815 549.052 132.919C549.192 133.023 549.308 133.155 549.393 133.307C549.478 133.459 549.53 133.628 549.546 133.801V147.271C549.567 147.517 549.639 147.757 549.756 147.975C549.873 148.194 550.034 148.386 550.227 148.54C550.421 148.694 550.645 148.807 550.884 148.872C551.123 148.937 551.373 148.953 551.618 148.918C552.13 148.921 552.625 148.734 553.008 148.394C553.391 148.053 553.634 147.583 553.69 147.074V134.143" stroke="#263238" stroke-linecap="round" stroke-linejoin="round"/>
<path d="M542.583 138.795V140.349" stroke="#263238" stroke-linecap="round" stroke-linejoin="round"/>
<path d="M553.669 132.257V121.751C553.687 121.585 553.766 121.432 553.89 121.321C554.015 121.21 554.176 121.149 554.343 121.15V121.15C554.421 121.137 554.501 121.14 554.578 121.16C554.654 121.179 554.726 121.214 554.789 121.263C554.851 121.312 554.902 121.373 554.94 121.443C554.977 121.512 555 121.589 555.006 121.668V127.885C555.025 128.263 555.192 128.619 555.471 128.875C555.75 129.131 556.119 129.267 556.498 129.253C556.937 129.285 557.372 129.145 557.71 128.863C558.048 128.58 558.264 128.178 558.311 127.74V120.249C558.311 118.28 556.436 116.819 554.115 116.985L542.137 117.855C539.817 118.031 537.993 119.731 537.993 121.668V128.921C538.014 129.297 538.183 129.649 538.462 129.901C538.742 130.153 539.109 130.285 539.485 130.268C539.922 130.303 540.355 130.167 540.693 129.889C541.032 129.61 541.248 129.211 541.298 128.776V122.559C541.316 122.392 541.394 122.238 541.518 122.125C541.643 122.013 541.804 121.95 541.972 121.948V121.948C542.049 121.936 542.129 121.941 542.205 121.961C542.281 121.981 542.352 122.016 542.414 122.065C542.476 122.113 542.528 122.174 542.566 122.243C542.604 122.312 542.627 122.388 542.635 122.466V137.22" stroke="#263238" stroke-linecap="round" stroke-linejoin="round"/>
<path d="M591.767 108.789C591.984 110.095 592.306 111.981 592.306 111.981L584.908 112.53C584.908 112.53 585.592 108.385 585.643 108.074C585.767 107.335 586.119 106.653 586.651 106.125C587.182 105.597 587.867 105.25 588.607 105.132C589.318 105.111 590.012 105.352 590.558 105.808C591.104 106.264 591.464 106.905 591.57 107.608" stroke="#263238" stroke-linecap="round" stroke-linejoin="round"/>
<path d="M598.16 125.222V117.482C598.16 115.41 596.274 113.928 593.964 114.094" stroke="#263238" stroke-linecap="round" stroke-linejoin="round"/>
<path d="M593.518 137.604V135.013L595.88 134.879C594.937 128.548 594.461 125.377 593.518 119.068C593.531 118.899 593.606 118.741 593.728 118.624C593.851 118.507 594.012 118.44 594.181 118.436C594.261 118.424 594.342 118.429 594.419 118.45C594.496 118.472 594.569 118.509 594.631 118.559C594.693 118.61 594.744 118.673 594.781 118.744C594.818 118.816 594.839 118.894 594.844 118.974V125.409C594.855 125.794 595.018 126.16 595.298 126.426C595.577 126.692 595.95 126.836 596.336 126.828" stroke="#263238" stroke-linecap="round" stroke-linejoin="round"/>
<path d="M593.518 140.95V139.158" stroke="#263238" stroke-linecap="round" stroke-linejoin="round"/>
<path d="M581.613 133.729C581.499 134.495 581.447 134.879 581.333 135.645L583.696 135.511V145.644C583.714 145.894 583.782 146.139 583.897 146.362C584.012 146.585 584.172 146.783 584.365 146.943C584.559 147.103 584.783 147.221 585.024 147.292C585.266 147.363 585.518 147.383 585.768 147.353C586.288 147.355 586.79 147.161 587.174 146.81C587.558 146.459 587.796 145.976 587.84 145.457V135.283L589.374 135.2V145.374C589.391 145.625 589.46 145.869 589.575 146.093C589.69 146.316 589.849 146.513 590.043 146.673C590.237 146.833 590.461 146.952 590.702 147.023C590.943 147.093 591.196 147.114 591.446 147.084C591.968 147.086 592.471 146.89 592.855 146.537C593.24 146.183 593.476 145.698 593.518 145.178V142.753" stroke="#263238" stroke-linecap="round" stroke-linejoin="round"/>
<path d="M590.379 114.353L583.25 114.871C582.198 114.908 581.195 115.329 580.431 116.054C579.668 116.779 579.196 117.759 579.106 118.809V126.362C579.119 126.736 579.276 127.09 579.545 127.351C579.813 127.611 580.172 127.758 580.546 127.761C580.992 127.795 581.433 127.652 581.775 127.363C582.116 127.074 582.33 126.662 582.369 126.217V119.793C582.384 119.625 582.46 119.468 582.582 119.352C582.704 119.236 582.864 119.168 583.033 119.161V119.161C583.112 119.149 583.193 119.154 583.27 119.176C583.348 119.197 583.42 119.234 583.482 119.285C583.545 119.335 583.596 119.398 583.633 119.47C583.669 119.541 583.691 119.619 583.696 119.7L582.09 130.579" stroke="#263238" stroke-linecap="round" stroke-linejoin="round"/>
<path d="M633.553 120.715L628.29 121.057C627.836 121.119 627.374 121.086 626.934 120.961C626.493 120.835 626.084 120.62 625.731 120.327C625.378 120.035 625.09 119.673 624.885 119.263C624.68 118.854 624.562 118.406 624.539 117.949V113.255C624.605 112.292 625.024 111.386 625.716 110.713C626.408 110.04 627.325 109.646 628.29 109.608L633.553 109.214C634.007 109.15 634.468 109.182 634.909 109.307C635.35 109.432 635.759 109.648 636.111 109.94C636.464 110.233 636.751 110.596 636.954 111.006C637.158 111.417 637.273 111.865 637.293 112.322V117.099C637.23 118.058 636.812 118.96 636.12 119.628C635.429 120.296 634.514 120.684 633.553 120.715Z" fill="#999999" stroke="#263238" stroke-linecap="round" stroke-linejoin="round"/>
<path d="M646.266 117.172L643.054 117.389V115.99C644.287 113.265 644.899 111.908 646.163 109.173L647.997 109.038V115.659H648.784V117.058H647.997V118.84L646.308 118.954L646.266 117.172ZM646.266 115.773V111.96C645.614 113.535 645.282 114.322 644.619 115.887L646.266 115.773Z" fill="#263238"/>
<path d="M649.53 116.363V115.586L651.115 115.483V116.363C651.115 117.068 651.457 117.296 651.996 117.254C652.535 117.213 652.866 116.944 652.866 116.218V114.011C652.866 113.307 652.524 113.058 651.996 113.1C651.467 113.141 651.115 113.421 651.115 114.136V114.219L649.53 114.333C649.654 112.126 649.716 111.027 649.83 108.831L654.265 108.499V109.908L651.333 110.116C651.281 111.058 651.25 111.535 651.198 112.478C651.354 112.233 651.568 112.03 651.821 111.888C652.074 111.745 652.358 111.666 652.649 111.659C653.882 111.577 654.514 112.333 654.514 113.783V116.011C654.545 116.354 654.502 116.7 654.389 117.026C654.276 117.352 654.095 117.649 653.858 117.899C653.62 118.149 653.332 118.346 653.013 118.476C652.694 118.606 652.351 118.666 652.006 118.653C651.683 118.72 651.349 118.709 651.031 118.621C650.713 118.532 650.421 118.369 650.179 118.145C649.937 117.922 649.751 117.643 649.638 117.333C649.526 117.023 649.488 116.691 649.53 116.363Z" fill="#263238"/>
<path d="M655.602 112.374V109.908C655.584 109.687 655.613 109.464 655.688 109.255C655.762 109.045 655.88 108.854 656.034 108.694C656.187 108.533 656.373 108.407 656.579 108.324C656.785 108.24 657.006 108.201 657.228 108.209C657.436 108.163 657.653 108.167 657.859 108.222C658.065 108.276 658.255 108.379 658.413 108.522C658.572 108.665 658.693 108.844 658.768 109.044C658.843 109.243 658.87 109.458 658.845 109.67V112.146C658.864 112.367 658.836 112.59 658.763 112.799C658.689 113.008 658.572 113.2 658.42 113.36C658.267 113.521 658.081 113.647 657.876 113.731C657.671 113.815 657.45 113.854 657.228 113.845C657.019 113.891 656.801 113.887 656.594 113.832C656.386 113.777 656.195 113.673 656.036 113.529C655.877 113.385 655.754 113.205 655.679 113.004C655.603 112.803 655.577 112.587 655.602 112.374ZM657.777 112.291V109.68C657.777 109.245 657.56 109.079 657.228 109.1C656.897 109.121 656.669 109.328 656.669 109.763V112.374C656.669 112.809 656.876 112.975 657.228 112.954C657.581 112.934 657.777 112.726 657.777 112.291ZM661.103 108.064L662.139 107.991C660.482 112.074 659.653 114.115 657.995 118.176L656.959 118.249C658.617 114.187 659.446 112.157 661.103 108.074V108.064ZM660.295 116.581V114.105C660.276 113.884 660.304 113.662 660.377 113.453C660.45 113.244 660.568 113.054 660.721 112.894C660.874 112.734 661.059 112.608 661.264 112.526C661.47 112.444 661.69 112.406 661.912 112.416C662.121 112.367 662.34 112.37 662.548 112.424C662.757 112.478 662.949 112.582 663.109 112.727C663.269 112.871 663.391 113.052 663.466 113.254C663.541 113.456 663.565 113.673 663.538 113.887V116.363C663.556 116.584 663.527 116.806 663.452 117.015C663.377 117.224 663.259 117.415 663.106 117.574C662.952 117.734 662.766 117.859 662.56 117.942C662.354 118.024 662.133 118.062 661.912 118.052C661.702 118.099 661.485 118.094 661.278 118.039C661.071 117.984 660.88 117.88 660.722 117.736C660.563 117.592 660.442 117.411 660.367 117.21C660.293 117.009 660.268 116.793 660.295 116.581ZM662.471 116.508V113.887C662.471 113.452 662.253 113.286 661.912 113.307C661.57 113.327 661.362 113.524 661.362 113.97V116.581C661.362 117.026 661.57 117.192 661.912 117.171C662.253 117.151 662.471 116.954 662.471 116.508Z" fill="#263238"/>
<path d="M633.553 137.552L628.29 137.821C627.832 137.874 627.368 137.832 626.926 137.699C626.485 137.565 626.076 137.342 625.724 137.044C625.373 136.746 625.086 136.379 624.882 135.965C624.678 135.552 624.561 135.101 624.539 134.64V129.905C624.603 128.947 625.024 128.048 625.718 127.384C626.412 126.721 627.33 126.341 628.29 126.32L633.553 125.999C634.01 125.943 634.474 125.982 634.916 126.114C635.357 126.246 635.766 126.468 636.117 126.765C636.469 127.063 636.755 127.431 636.957 127.844C637.16 128.258 637.274 128.709 637.293 129.17V133.977C637.231 134.933 636.812 135.831 636.12 136.493C635.427 137.155 634.511 137.533 633.553 137.552Z" fill="#7E8AF5" stroke="#263238" stroke-linecap="round" stroke-linejoin="round"/>
<path d="M643.407 133.718V132.941L645.002 132.858V133.729C645.002 134.433 645.334 134.661 645.873 134.64C646.411 134.62 646.743 134.34 646.743 133.604V131.408C646.743 130.714 646.411 130.465 645.873 130.496C645.334 130.527 645.002 130.807 645.002 131.532V131.615L643.407 131.698L643.717 126.227L648.152 125.958V127.367L645.22 127.533C645.158 128.476 645.137 128.942 645.075 129.874C645.231 129.631 645.446 129.431 645.699 129.292C645.952 129.153 646.236 129.079 646.525 129.076C647.769 129.004 648.39 129.771 648.39 131.211V133.428C648.424 133.77 648.383 134.114 648.27 134.438C648.158 134.762 647.975 135.058 647.737 135.304C647.498 135.551 647.209 135.742 646.889 135.866C646.568 135.989 646.225 136.041 645.883 136.018C645.559 136.086 645.224 136.075 644.905 135.986C644.586 135.897 644.293 135.733 644.051 135.508C643.808 135.283 643.623 135.003 643.511 134.691C643.399 134.38 643.363 134.046 643.407 133.718Z" fill="#263238"/>
<path d="M649.53 133.386V132.62L651.115 132.527V133.418C651.115 134.112 651.457 134.35 651.996 134.319C652.535 134.288 652.866 134.029 652.866 133.283V131.076C652.866 130.371 652.524 130.123 651.996 130.154C651.467 130.185 651.115 130.465 651.115 131.19V131.273L649.53 131.366C649.654 129.159 649.716 128.061 649.83 125.864L654.265 125.595V127.004L651.333 127.17C651.281 128.113 651.25 128.589 651.198 129.532C651.354 129.289 651.568 129.088 651.822 128.949C652.075 128.809 652.359 128.736 652.649 128.734C653.882 128.662 654.514 129.429 654.514 130.879V133.107C654.547 133.449 654.506 133.795 654.393 134.119C654.281 134.444 654.099 134.741 653.861 134.989C653.622 135.237 653.333 135.431 653.013 135.557C652.693 135.682 652.35 135.737 652.006 135.718C651.679 135.786 651.341 135.775 651.019 135.685C650.698 135.594 650.403 135.428 650.159 135.199C649.916 134.97 649.732 134.685 649.622 134.37C649.513 134.054 649.481 133.717 649.53 133.386Z" fill="#263238"/>
<path d="M655.602 129.512V127.046C655.582 126.825 655.61 126.602 655.684 126.393C655.758 126.184 655.876 125.993 656.031 125.834C656.185 125.675 656.372 125.551 656.579 125.47C656.785 125.389 657.007 125.354 657.228 125.367C657.438 125.323 657.656 125.329 657.862 125.385C658.069 125.442 658.26 125.547 658.418 125.692C658.576 125.837 658.697 126.017 658.771 126.219C658.846 126.42 658.871 126.636 658.845 126.849V129.325C658.864 129.545 658.837 129.766 658.763 129.974C658.689 130.182 658.572 130.371 658.419 130.529C658.265 130.688 658.079 130.811 657.874 130.891C657.669 130.971 657.448 131.006 657.228 130.993C657.018 131.037 656.8 131.031 656.593 130.974C656.386 130.918 656.195 130.813 656.036 130.668C655.877 130.524 655.755 130.343 655.68 130.142C655.604 129.941 655.577 129.725 655.602 129.512ZM657.777 129.46V126.849C657.777 126.403 657.56 126.237 657.228 126.258C656.897 126.279 656.669 126.476 656.669 126.911V129.522C656.669 129.957 656.876 130.133 657.228 130.113C657.581 130.092 657.777 129.895 657.777 129.46ZM661.103 125.315L662.139 125.253C660.482 129.315 659.653 131.345 657.995 135.386L656.959 135.438C658.617 131.366 659.446 129.335 661.103 125.274V125.315ZM660.295 133.822V131.345C660.275 131.126 660.303 130.905 660.377 130.697C660.45 130.489 660.568 130.299 660.721 130.141C660.875 129.983 661.06 129.859 661.266 129.779C661.471 129.699 661.691 129.665 661.912 129.677C662.123 129.633 662.341 129.64 662.55 129.697C662.758 129.754 662.949 129.859 663.108 130.005C663.267 130.151 663.389 130.333 663.464 130.535C663.539 130.738 663.564 130.955 663.538 131.169V133.656C663.558 133.877 663.53 134.099 663.456 134.307C663.382 134.516 663.263 134.706 663.109 134.865C662.954 135.023 662.767 135.146 662.561 135.226C662.354 135.305 662.132 135.339 661.912 135.324C661.696 135.369 661.473 135.361 661.262 135.3C661.05 135.24 660.857 135.129 660.698 134.977C660.539 134.825 660.419 134.637 660.349 134.428C660.279 134.22 660.26 133.997 660.295 133.78V133.822ZM662.471 133.822V131.2C662.471 130.765 662.253 130.589 661.912 130.61C661.57 130.631 661.362 130.827 661.362 131.263V133.884C661.362 134.319 661.57 134.495 661.912 134.475C662.253 134.454 662.471 134.174 662.471 133.739V133.822Z" fill="#263238"/>
<path d="M379.437 191.212L314.598 192.714V86.254L379.437 78.7837V191.212Z" fill="#7E8AF5"/>
<path opacity="0.8" d="M379.437 191.212L314.598 192.714V86.254L379.437 78.7837V191.212Z" fill="white"/>
<path d="M444.329 189.72L379.437 191.212V78.7838L444.287 71.3135L444.329 189.72Z" fill="#7E8AF5"/>
<path opacity="0.6" d="M444.329 189.72L379.437 191.212V78.7838L444.287 71.3135L444.329 189.72Z" fill="white"/>
<path d="M509.179 188.228L444.329 189.72V71.3134L509.179 63.843V188.228Z" fill="#7E8AF5"/>
<path opacity="0.4" d="M509.179 188.228L444.329 189.72V71.3134L509.179 63.843V188.228Z" fill="white"/>
<path d="M509.179 63.843L314.639 86.254" stroke="#7F7F7F" stroke-linecap="round" stroke-linejoin="round"/>
<path d="M314.639 101.464L509.179 81.6123" stroke="#7F7F7F" stroke-linecap="round" stroke-linejoin="round"/>
<path d="M509.179 99.3816L314.639 116.674" stroke="#7F7F7F" stroke-linecap="round" stroke-linejoin="round"/>
<path d="M314.639 131.905L509.179 117.182" stroke="#7F7F7F" stroke-linecap="round" stroke-linejoin="round"/>
<path d="M509.179 134.92L314.639 147.084" stroke="#7F7F7F" stroke-linecap="round" stroke-linejoin="round"/>
<path d="M314.639 162.294L509.179 152.689" stroke="#7F7F7F" stroke-linecap="round" stroke-linejoin="round"/>
<path d="M509.179 170.458L314.639 177.494" stroke="#7F7F7F" stroke-linecap="round" stroke-linejoin="round"/>
<path d="M314.639 192.714L509.179 188.228" stroke="#7F7F7F" stroke-linecap="round" stroke-linejoin="round"/>
<path d="M330.844 192.341V84.3892" stroke="#7F7F7F" stroke-linecap="round" stroke-linejoin="round"/>
<path d="M314.639 86.2542V192.714" stroke="#7F7F7F" stroke-linecap="round" stroke-linejoin="round"/>
<path d="M363.274 191.585V80.6487" stroke="#7F7F7F" stroke-linecap="round" stroke-linejoin="round"/>
<path d="M347.059 82.5137V191.999" stroke="#7F7F7F" stroke-linecap="round" stroke-linejoin="round"/>
<path d="M395.694 190.839V76.9187" stroke="#7F7F7F" stroke-linecap="round" stroke-linejoin="round"/>
<path d="M379.437 78.7837V191.212" stroke="#7F7F7F" stroke-linecap="round" stroke-linejoin="round"/>
<path d="M428.134 190.093V73.1785" stroke="#7F7F7F" stroke-linecap="round" stroke-linejoin="round"/>
<path d="M411.909 75.0537V190.466" stroke="#7F7F7F" stroke-linecap="round" stroke-linejoin="round"/>
<path d="M460.544 189.347V69.4485" stroke="#7F7F7F" stroke-linecap="round" stroke-linejoin="round"/>
<path d="M444.329 71.3135V189.72" stroke="#7F7F7F" stroke-linecap="round" stroke-linejoin="round"/>
<path d="M492.964 188.601V65.7185" stroke="#7F7F7F" stroke-linecap="round" stroke-linejoin="round"/>
<path d="M476.749 67.5833V188.974" stroke="#7F7F7F" stroke-linecap="round" stroke-linejoin="round"/>
<path d="M509.179 63.843V188.228" stroke="#7F7F7F" stroke-linecap="round" stroke-linejoin="round"/>
<path d="M314.639 86.254V192.714L509.179 188.228V63.8948L314.639 86.254Z" stroke="#263238" stroke-linecap="round" stroke-linejoin="round"/>
<path d="M314.639 177.494H315.8" stroke="#263238" stroke-linecap="round" stroke-linejoin="round"/>
<path d="M317.779 177.39L328.699 176.996" stroke="#263238" stroke-linecap="round" stroke-linejoin="round" stroke-dasharray="1.71 1.71"/>
<path d="M329.704 176.955H330.854L331.673 176.147" stroke="#263238" stroke-linecap="round" stroke-linejoin="round"/>
<path d="M333.289 174.499C338.148 169.682 340.542 167.247 345.432 162.346" stroke="#263238" stroke-linecap="round" stroke-linejoin="round" stroke-dasharray="1.98 1.98"/>
<path d="M346.282 161.527L347.1 160.698C347.432 160.989 347.598 161.144 347.919 161.444" stroke="#263238" stroke-linecap="round" stroke-linejoin="round"/>
<path d="M349.173 162.625L353.7 166.77" stroke="#263238" stroke-linecap="round" stroke-linejoin="round" stroke-dasharray="1.58 1.58"/>
<path d="M354.343 167.402L355.161 168.169C355.317 167.734 355.389 167.516 355.534 167.081" stroke="#263238" stroke-linecap="round" stroke-linejoin="round"/>
<path d="M356.197 165.06C358.746 157.518 360.021 153.725 362.57 146.1" stroke="#263238" stroke-linecap="round" stroke-linejoin="round" stroke-dasharray="1.83 1.83"/>
<path d="M362.86 145.146C363.015 144.701 363.087 144.483 363.233 144.048L364.383 143.976" stroke="#263238" stroke-linecap="round" stroke-linejoin="round"/>
<path d="M366.362 143.851L369.252 143.675" stroke="#263238" stroke-linecap="round" stroke-linejoin="round" stroke-dasharray="1.67 1.67"/>
<path d="M370.216 143.613L371.376 143.541L371.894 142.504" stroke="#263238" stroke-linecap="round" stroke-linejoin="round"/>
<path d="M372.91 140.432L378.463 129.035" stroke="#263238" stroke-linecap="round" stroke-linejoin="round" stroke-dasharray="1.95 1.95"/>
<path d="M378.961 128.03L379.479 126.994L380.639 126.901" stroke="#263238" stroke-linecap="round" stroke-linejoin="round"/>
<path d="M382.629 126.724L393.539 125.896" stroke="#263238" stroke-linecap="round" stroke-linejoin="round" stroke-dasharray="1.71 1.71"/>
<path d="M394.533 125.833L395.694 125.74L396.512 124.859" stroke="#263238" stroke-linecap="round" stroke-linejoin="round"/>
<path d="M397.808 123.461L402.335 118.539" stroke="#263238" stroke-linecap="round" stroke-linejoin="round" stroke-dasharray="1.58 1.58"/>
<path d="M402.978 117.835L403.796 116.933L404.957 116.84" stroke="#263238" stroke-linecap="round" stroke-linejoin="round"/>
<path d="M407.267 116.653L420.011 115.617C422.602 112.747 423.897 111.318 426.487 108.427" stroke="#263238" stroke-linecap="round" stroke-linejoin="round" stroke-dasharray="1.99 1.99"/>
<path d="M427.295 107.505C427.627 107.132 427.792 106.956 428.114 106.583L428.932 107.36" stroke="#263238" stroke-linecap="round" stroke-linejoin="round"/>
<path d="M430.559 108.883C435.408 113.483 437.812 115.804 442.702 120.487" stroke="#263238" stroke-linecap="round" stroke-linejoin="round" stroke-dasharray="1.98 1.98"/>
<path d="M443.51 121.275L444.329 122.062C444.66 121.699 444.816 121.513 445.147 121.14" stroke="#263238" stroke-linecap="round" stroke-linejoin="round"/>
<path d="M446.442 119.689C448.256 117.617 449.157 116.643 450.97 114.592" stroke="#263238" stroke-linecap="round" stroke-linejoin="round" stroke-dasharray="1.58 1.58"/>
<path d="M451.613 113.866L452.431 112.934L453.592 112.841" stroke="#263238" stroke-linecap="round" stroke-linejoin="round"/>
<path d="M455.819 112.654L468.646 111.618C471.889 107.898 473.506 106.033 476.749 102.293L482.582 101.775" stroke="#263238" stroke-linecap="round" stroke-linejoin="round" stroke-dasharray="1.93 1.93"/>
<path d="M483.701 101.651L484.861 101.547L485.379 100.386" stroke="#263238" stroke-linecap="round" stroke-linejoin="round"/>
<path d="M486.384 98.1176C488.602 93.1236 489.721 90.6162 491.938 85.5911" stroke="#263238" stroke-linecap="round" stroke-linejoin="round" stroke-dasharray="1.95 1.95"/>
<path d="M492.446 84.4408L492.964 83.27" stroke="#263238" stroke-linecap="round" stroke-linejoin="round"/>
<path d="M314.639 162.294L330.844 161.496C337.33 158.088 340.573 156.368 347.059 152.876L355.161 152.42C358.404 145.944 360.031 142.681 363.274 136.122C366.517 132.724 368.133 131.024 371.376 127.584C374.619 120.953 376.236 117.617 379.479 110.903C385.965 113.545 389.208 114.882 395.694 117.607C398.937 120.591 400.553 122.093 403.796 125.129C410.282 118.083 413.525 114.519 420.011 107.308C423.254 100.376 424.871 96.9468 428.114 89.8805C434.6 95.9003 437.843 98.9568 444.329 105.142C447.572 111.628 449.188 114.882 452.431 121.451L468.646 120.218C471.889 116.529 473.506 114.675 476.749 110.893C479.992 100.221 481.618 94.8538 484.861 84.0576C488.094 76.7426 489.721 73.0645 492.964 65.677" stroke="#263238" stroke-linecap="round" stroke-linejoin="round"/>
<path d="M345.722 205.313C345.389 205.429 345.039 205.485 344.686 205.479C344.373 205.518 344.054 205.485 343.755 205.382C343.457 205.279 343.185 205.109 342.962 204.885C342.739 204.661 342.571 204.389 342.469 204.089C342.367 203.79 342.335 203.472 342.376 203.158V198.216C342.34 197.9 342.374 197.58 342.476 197.279C342.578 196.978 342.745 196.703 342.966 196.474C343.187 196.245 343.456 196.068 343.753 195.956C344.051 195.843 344.369 195.798 344.686 195.823C345 195.782 345.318 195.814 345.617 195.916C345.917 196.018 346.189 196.186 346.413 196.409C346.637 196.632 346.807 196.904 346.91 197.202C347.013 197.501 347.046 197.819 347.007 198.133V203.065C347.027 203.611 346.878 204.15 346.582 204.609C346.686 204.795 346.872 204.826 347.152 204.816H347.38V206.153H346.986C346.71 206.186 346.432 206.119 346.2 205.965C345.968 205.812 345.799 205.581 345.722 205.313ZM345.505 203.241V198.133C345.505 197.46 345.194 197.211 344.707 197.221C344.22 197.232 343.92 197.491 343.92 198.164V203.262C343.92 203.935 344.23 204.184 344.707 204.174C345.184 204.163 345.505 203.884 345.505 203.21V203.241Z" fill="#263238"/>
<path d="M350.198 198.112H348.603V197.076C349.898 197.076 350.354 196.776 350.675 195.854H351.711V205.261H350.178L350.198 198.112Z" fill="#263238"/>
<path d="M410.137 204.547C409.805 204.669 409.455 204.732 409.101 204.733C408.778 204.76 408.453 204.713 408.151 204.597C407.848 204.481 407.576 204.298 407.354 204.062C407.132 203.826 406.966 203.543 406.868 203.234C406.771 202.925 406.744 202.598 406.791 202.277V197.097C406.746 196.773 406.773 196.443 406.871 196.131C406.968 195.819 407.133 195.533 407.353 195.291C407.574 195.05 407.845 194.86 408.147 194.735C408.449 194.61 408.775 194.554 409.101 194.569C410.603 194.569 411.422 195.429 411.422 197.014V202.195C411.45 202.767 411.302 203.335 410.997 203.821C411.101 204.018 411.287 204.049 411.567 204.039H411.805V205.469H411.401C411.114 205.498 410.826 205.42 410.593 205.25C410.359 205.08 410.197 204.829 410.137 204.547ZM409.92 202.34V196.952C409.92 196.247 409.609 195.978 409.122 195.988C408.635 195.999 408.334 196.278 408.334 197.024V202.36C408.334 203.065 408.645 203.324 409.122 203.324C409.598 203.324 409.92 203.044 409.92 202.36V202.34Z" fill="#263238"/>
<path d="M412.448 203.479C412.435 202.816 412.565 202.159 412.83 201.551C413.095 200.943 413.487 200.399 413.981 199.957C415.142 198.693 415.473 197.884 415.473 197.004C415.473 196.123 415.173 195.874 414.686 195.885C414.199 195.895 413.888 196.175 413.888 196.921V197.957H412.448V196.993C412.448 195.408 413.225 194.486 414.727 194.465C416.229 194.444 417.006 195.325 417.006 196.91C417.006 198.092 416.53 199.148 415.11 200.703C414.199 201.739 413.96 202.205 413.96 202.889V203.106H416.861V204.526L412.448 204.578V203.479Z" fill="#263238"/>
<path d="M475.029 203.78C474.699 203.91 474.347 203.977 473.992 203.977C472.49 203.977 471.672 203.055 471.672 201.397V195.947C471.672 194.289 472.49 193.326 473.992 193.294C475.495 193.263 476.313 194.206 476.313 195.864V201.324C476.336 201.924 476.185 202.518 475.878 203.034C475.992 203.241 476.168 203.272 476.448 203.262H476.686V204.743H476.282C475.991 204.769 475.7 204.684 475.468 204.505C475.236 204.327 475.079 204.068 475.029 203.78ZM474.801 201.459V195.791C474.801 195.045 474.5 194.755 474.013 194.755C473.526 194.755 473.226 195.056 473.226 195.791V201.459C473.226 202.195 473.526 202.495 474.013 202.495C474.5 202.495 474.759 202.195 474.759 201.459H474.801Z" fill="#263238"/>
<path d="M477.256 201.324V200.475H478.696V201.397C478.696 202.132 478.997 202.433 479.484 202.433C479.971 202.433 480.282 202.163 480.282 201.241V200.392C480.282 199.428 479.971 199.076 479.246 199.086H478.738V197.594H479.287C479.857 197.594 480.209 197.314 480.209 196.475V195.719C480.209 194.973 479.888 194.683 479.442 194.683C478.997 194.683 478.707 194.983 478.707 195.667V196.351H477.267V195.802C477.267 194.134 478.044 193.191 479.494 193.17C480.945 193.149 481.732 194.03 481.732 195.698V196.144C481.732 197.263 481.401 197.957 480.696 198.268C481.515 198.579 481.815 199.304 481.815 200.392V201.324C481.815 202.992 481.038 203.914 479.536 203.925C478.033 203.935 477.256 203.013 477.256 201.324Z" fill="#263238"/>
<path d="M373.345 144.887C373.345 144.887 357.917 131.636 368.164 122.881C368.164 122.881 373.107 107.339 389.342 109.525C405.578 111.711 397.445 102.521 397.445 102.521C397.445 102.521 406.646 107.339 402.418 111.059C403.689 111.118 404.951 110.822 406.062 110.204C407.173 109.585 408.089 108.668 408.707 107.556C408.707 107.556 411.536 112.592 406.252 114.809C406.252 114.809 413.163 116.56 411.318 120.508C411.318 120.508 406.407 117.897 405.102 127.761C403.796 137.624 388.172 136.184 388.172 136.184L373.345 144.887Z" fill="#263238" stroke="#263238" stroke-linecap="round" stroke-linejoin="round"/>
<path d="M374.329 148.172C374.329 147.664 370.662 158.844 377.635 157.901C380.94 157.455 376.236 148.172 376.236 148.172H374.329Z" fill="#263238" stroke="#263238" stroke-linecap="round" stroke-linejoin="round"/>
<path d="M408.345 117.959C408.345 117.959 404.2 117.296 403.382 122.103" stroke="#7F7F7F" stroke-linecap="round" stroke-linejoin="round"/>
<path d="M398.533 116.809C396.896 118.943 397.445 122.114 397.445 122.114" stroke="#7F7F7F" stroke-linecap="round" stroke-linejoin="round"/>
<path d="M407.174 111.059C405.657 113.132 403.455 114.6 400.957 115.203" stroke="#7F7F7F" stroke-linecap="round" stroke-linejoin="round"/>
<path d="M388.141 116.591C388.141 116.591 394.792 115.276 393.912 122.114" stroke="#7F7F7F" stroke-linecap="round" stroke-linejoin="round"/>
<path d="M420.757 281.892C420.757 281.892 426.28 310.717 420.757 338.961C415.235 367.205 411.826 457.906 411.826 457.906H377.458V277.385L419.027 275.924L420.757 281.892Z" fill="#999999"/>
<path opacity="0.2" d="M400.336 320.57C400.336 320.57 398.844 330.538 406.293 328.02C413.743 325.502 418.913 326.372 412.697 332.009C406.48 337.645 397.859 346.183 396.481 377.059C395.103 407.935 392.969 457.875 392.969 457.875H377.997L374.889 343.199L388.493 323.171L394.824 320.539L400.336 320.57Z" fill="black"/>
<path d="M420.757 281.892C420.757 281.892 426.28 310.717 420.757 338.961C415.235 367.205 411.826 457.906 411.826 457.906H377.458V277.385L419.027 275.924L420.757 281.892Z" stroke="#263238" stroke-linecap="round" stroke-linejoin="round"/>
<path d="M416.613 328.123C416.613 328.123 408.915 326.486 400.336 336.008" stroke="#263238" stroke-linecap="round" stroke-linejoin="round"/>
<path d="M405.226 285.135C405.226 285.135 404.874 317.255 400.729 329.439C396.585 341.624 390.368 398.796 391.063 457.917H355.534C355.534 457.917 353.462 351.125 352.063 335.355C350.665 319.586 343.433 322.228 353.441 277.396H406.687L405.226 285.135Z" fill="#999999" stroke="#263238" stroke-linecap="round" stroke-linejoin="round"/>
<path d="M398.491 292.015C401.227 291.828 403.724 291.611 405.993 291.383L406.293 296.677C403.931 296.916 401.32 297.144 398.491 297.33V292.015Z" fill="#263238"/>
<path d="M409.857 290.948C414.147 290.44 417.255 289.912 418.934 289.611L419.649 294.843C417.701 295.196 414.365 295.745 409.857 296.284V290.948Z" fill="#263238"/>
<path d="M351.545 296.17L352.353 290.989C358.176 291.642 363.751 292.077 369.066 292.326L368.714 297.579C363.295 297.289 357.555 296.853 351.545 296.17Z" fill="#263238"/>
<path d="M373.107 292.502C381.209 292.761 388.524 292.616 394.865 292.274V297.579C390.845 297.786 386.431 297.921 381.686 297.921C378.888 297.921 375.966 297.869 372.941 297.765L373.107 292.502Z" fill="#263238"/>
<path d="M471.848 235.868L480.593 230.594C480.593 230.594 484.271 220.958 488.881 218.337C493.492 215.716 498.082 213.302 499.243 213.954C500.403 214.607 499.015 216.804 496.02 218.99C494.155 220.358 499.584 218.037 506.547 214.845C510.692 212.918 515.478 210.235 516.214 211.395C518.918 215.612 505.086 220.979 505.086 220.979C505.086 220.979 509.832 220.751 507.987 224.253C507.987 224.253 508.681 227.538 507.065 228.636L505.231 230.874C504.477 233.084 503.022 234.986 501.087 236.293C496.915 238.616 492.271 239.966 487.503 240.24L476.003 248.291L471.848 235.868Z" fill="white" stroke="#263238" stroke-linecap="round" stroke-linejoin="round"/>
<path d="M502.227 221.404C502.227 221.404 492.446 223.373 492.964 225.548C493.482 227.724 496.518 226.191 496.518 226.191C496.518 226.191 493.285 227.289 493.637 228.491C493.989 229.693 496.279 229.672 496.279 229.672C496.279 229.672 493.285 230.356 493.637 231.744C493.989 233.133 495.979 233.609 497.626 233.392C499.274 233.174 500.538 232.615 501.004 233.444C501.47 234.273 496.507 232.946 493.637 234.977" stroke="#263238" stroke-linecap="round" stroke-linejoin="round"/>
<path d="M494.445 219.757C494.293 220.971 493.784 222.114 492.985 223.041C491.793 224.139 492.829 227.859 488.457 231.91" stroke="#263238" stroke-linecap="round" stroke-linejoin="round"/>
<path d="M504.382 225.176L498.942 225.828" stroke="#263238" stroke-linecap="round" stroke-linejoin="round"/>
<path d="M503.947 229.279L498.942 229.693" stroke="#263238" stroke-linecap="round" stroke-linejoin="round"/>
<path d="M451.136 241.432C458.731 239.36 467.911 233.692 472.324 230.76C472.579 230.585 472.873 230.477 473.181 230.446C473.488 230.415 473.798 230.462 474.082 230.583C474.366 230.704 474.616 230.895 474.806 231.138C474.997 231.38 475.124 231.668 475.174 231.972C475.671 235.982 477.246 242.81 482.551 244.665C490.146 247.338 482.893 251.462 478.065 252.85C473.236 254.238 438.692 270.982 428.331 268.692C417.97 266.402 414.52 264.744 409.681 254.736C404.843 244.727 407.257 196.444 407.257 196.444L421.762 192.828C421.762 192.828 425.555 196.227 427.399 218.99C429.243 241.753 432.279 244.602 432.279 244.602C432.279 244.602 441.49 237.795 439.076 244.375C439.055 244.375 448.525 242.137 451.136 241.432Z" fill="#7E8AF5" stroke="#263238" stroke-linecap="round" stroke-linejoin="round"/>
<path d="M434.216 248.281C434.216 248.281 430.476 260.776 427.658 259.823C424.84 258.87 425.586 255.461 430.248 248.281" stroke="#263238" stroke-linecap="round" stroke-linejoin="round"/>
<path d="M421.793 192.828C415.069 186.435 405.216 180.022 384.856 178.706C364.497 177.39 336.159 182.322 335.123 190.207C334.087 198.092 345.826 240.354 345.826 278.214C345.826 283.798 346.52 290.036 358.259 290.036C369.998 290.036 423.855 293.973 424.57 281.167C425.285 268.36 421.814 255.554 422.85 237.163C423.886 218.772 426.974 197.76 421.793 192.828Z" fill="#7E8AF5" stroke="#263238" stroke-linecap="round" stroke-linejoin="round"/>
<path d="M340.842 184.747C340.842 184.747 332.388 187.264 330.543 199.967C328.699 212.67 320.649 241.339 323.643 242.002C326.637 242.665 316.504 247.69 320.182 255.14C323.86 262.589 340.438 286.658 350.105 284.037C359.772 281.415 359.306 266.516 356.322 263.895C353.338 261.274 343.174 255.772 343.174 255.772C343.174 255.772 346.158 254.021 342.479 250.736C338.801 247.452 345.142 252.394 347.08 241.318C349.38 228.191 357.441 209.354 352.602 197.978" fill="#7E8AF5"/>
<path d="M340.842 184.747C340.842 184.747 332.388 187.264 330.543 199.967C328.699 212.67 320.649 241.339 323.643 242.002C326.637 242.665 316.504 247.69 320.182 255.14C323.86 262.589 340.438 286.658 350.105 284.037C359.772 281.415 359.306 266.516 356.322 263.895C353.338 261.274 343.174 255.772 343.174 255.772C343.174 255.772 346.158 254.021 342.479 250.736C338.801 247.452 345.142 252.394 347.08 241.318C349.38 228.191 357.441 209.354 352.602 197.978" stroke="#263238" stroke-linecap="round" stroke-linejoin="round"/>
<path d="M341.36 243.95C341.36 243.95 328.243 240.841 324.783 246.136C321.322 251.43 330.233 245.048 338.78 247.234" stroke="#263238" stroke-linecap="round" stroke-linejoin="round"/>
<path d="M360.342 268.91C358.27 267.428 353.327 264.858 350.105 267.874C346.883 270.889 339.174 272.681 339.63 274.981C340.086 277.281 342.966 277.945 348.147 275.427C353.327 272.909 349.048 276.08 349.981 281.115C350.913 286.151 351.67 290.73 355.721 289.87C355.721 289.87 356.084 292.056 359.772 291.072C359.772 291.072 362.528 293.331 366.9 291.331C366.9 291.331 369.325 293.807 372.889 289.539C376.453 285.27 374.257 284.213 374.257 284.213C374.257 284.213 372.651 279.271 369.076 284.213C369.076 284.213 369.698 278.1 366.092 274.266C364.305 272.347 362.383 270.557 360.342 268.91Z" fill="white" stroke="#263238" stroke-linecap="round" stroke-linejoin="round"/>
<path d="M357.275 288.357C357.275 288.357 363.108 284.638 361.844 282.452C360.58 280.265 355.856 284.855 355.856 284.855C355.856 284.855 356.55 283.674 355.172 281.861" stroke="#263238" stroke-linecap="round" stroke-linejoin="round"/>
<path d="M361.492 289.59C361.492 289.59 370.309 286.845 368.289 284.213C366.496 281.892 362.704 284.555 362.704 284.555" stroke="#263238" stroke-linecap="round" stroke-linejoin="round"/>
<path d="M373.221 285.135C373.221 285.135 372.288 287.767 368.154 290.316" stroke="#263238" stroke-linecap="round" stroke-linejoin="round"/>
<path d="M358.591 277.385C359.839 279.308 361.577 280.864 363.626 281.892" stroke="#263238" stroke-linecap="round" stroke-linejoin="round"/>
<path d="M341.36 254.736C341.36 254.736 333.942 251.12 328.243 253.907" stroke="#263238" stroke-linecap="round" stroke-linejoin="round"/>
<path d="M397.455 185.441L391.529 183.306L384.856 185.441C384.856 185.441 389.343 192.175 391.156 192.497C391.156 192.497 397.652 242.934 399.704 266.485C401.755 290.036 401.082 292.212 401.082 292.212L410.054 299.558L416.613 290.295C416.613 290.295 413.163 253.254 408.676 231.237C405.896 217.775 401.61 204.669 395.901 192.165C395.901 192.165 398.543 188.777 397.455 185.441Z" fill="#7E8AF5"/>
<path opacity="0.3" d="M397.455 185.441L391.529 183.306L384.856 185.441C384.856 185.441 389.343 192.175 391.156 192.497C391.156 192.497 397.652 242.934 399.704 266.485C401.755 290.036 401.082 292.212 401.082 292.212L410.054 299.558L416.613 290.295C416.613 290.295 413.163 253.254 408.676 231.237C405.896 217.775 401.61 204.669 395.901 192.165C395.901 192.165 398.543 188.777 397.455 185.441Z" fill="black"/>
<path d="M397.455 185.441L391.529 183.306L384.856 185.441C384.856 185.441 389.343 192.175 391.156 192.497C391.156 192.497 397.652 242.934 399.704 266.485C401.755 290.036 401.082 292.212 401.082 292.212L410.054 299.558L416.613 290.295C416.613 290.295 413.163 253.254 408.676 231.237C405.896 217.775 401.61 204.669 395.901 192.165C395.901 192.165 398.543 188.777 397.455 185.441Z" stroke="#263238" stroke-linecap="round" stroke-linejoin="round"/>
<path d="M398.16 168.169C398.16 168.169 396.989 175.743 399.901 180.934C399.901 180.934 393.601 183.69 390.897 184.042C388.193 184.394 374.319 176.126 374.319 176.126C376.132 167.423 376.78 158.517 376.246 149.643C375.355 135.034 391.923 158.771 391.923 158.771L399.89 166.024L398.16 168.169Z" fill="white"/>
<path d="M400.729 168.863C400.729 168.863 400.895 173.785 393.912 173.619C386.928 173.453 379.987 163.071 378.816 160.481C377.645 157.891 376.257 145.706 376.257 145.706L393.87 150.659L402.418 168.169L400.729 168.863Z" fill="#263238" stroke="#263238" stroke-linecap="round" stroke-linejoin="round"/>
<path d="M398.16 168.169C398.16 168.169 396.989 175.743 399.901 180.934C399.901 180.934 393.601 183.69 390.897 184.042C388.193 184.394 374.319 176.126 374.319 176.126C376.132 167.423 376.78 158.517 376.246 149.643C375.355 135.034 391.923 158.771 391.923 158.771L399.89 166.024L398.16 168.169Z" stroke="#263238" stroke-linecap="round" stroke-linejoin="round"/>
<path d="M398.895 177.173C398.895 177.173 395.445 183.089 391.529 183.306C387.612 183.524 374.495 170.873 371.739 172.8C370.021 174.098 368.768 175.914 368.164 177.981L379.893 191.875C379.893 191.875 388.483 184.539 391.933 184.757C395.383 184.974 402.802 191.875 402.802 191.875V181.814C402.802 181.814 400.522 174.883 398.895 177.173Z" fill="#7E8AF5" stroke="#263238" stroke-linecap="round" stroke-linejoin="round"/>
<path d="M403.9 124.051C403.9 124.051 408.728 138.215 407.775 141.821C407.775 141.821 412.272 168.666 401.558 170.832C393.104 172.51 384.742 164.387 381.551 160.823C380.683 159.848 380.017 158.71 379.593 157.476L377.521 151.405C377.521 151.405 373.304 151.715 370.734 146.058C368.165 140.401 373.397 134.91 377.448 143.478C377.448 143.478 380.619 134.816 380.38 131.335C380.142 127.854 384.711 128.703 385.654 125.264C385.654 125.243 396.492 126.994 403.9 124.051Z" fill="white"/>
<path d="M403.9 124.051C403.9 124.051 408.728 138.215 407.775 141.821C407.775 141.821 412.272 168.666 401.558 170.832C393.104 172.51 384.742 164.387 381.551 160.823C380.683 159.848 380.017 158.71 379.593 157.476L377.521 151.405C377.521 151.405 373.304 151.715 370.734 146.058C368.165 140.401 373.397 134.91 377.448 143.478C377.448 143.478 380.619 134.816 380.38 131.335C380.142 127.854 384.711 128.703 385.654 125.264C385.654 125.243 396.492 126.994 403.9 124.051Z" stroke="#263238" stroke-linecap="round" stroke-linejoin="round"/>
<path d="M403.382 144.266L409.101 151.467C409.235 151.639 409.325 151.841 409.364 152.055C409.404 152.269 409.391 152.49 409.327 152.699C409.263 152.907 409.15 153.097 408.997 153.252C408.844 153.407 408.656 153.524 408.448 153.591L404.387 155.021" fill="white"/>
<path d="M403.382 144.266L409.101 151.467C409.235 151.639 409.325 151.841 409.364 152.055C409.404 152.269 409.391 152.49 409.327 152.699C409.263 152.907 409.15 153.097 408.997 153.252C408.844 153.407 408.656 153.524 408.448 153.591L404.387 155.021" stroke="#263238" stroke-linecap="round" stroke-linejoin="round"/>
<path d="M395.062 157.901C395.062 157.901 396.834 161.548 402.76 158.326" stroke="#263238" stroke-linecap="round" stroke-linejoin="round"/>
<path d="M402.408 143.976C402.584 147.561 400.823 150.545 398.481 150.648C396.139 150.752 394.098 147.934 393.922 144.359C393.746 140.785 395.507 139.749 397.849 139.645C400.191 139.541 402.232 140.391 402.408 143.976Z" stroke="#263238" stroke-linecap="round" stroke-linejoin="round"/>
<path d="M413.194 143.167C413.37 146.752 411.961 149.726 410.085 149.809C408.21 149.892 406.48 147.063 406.304 143.478C406.128 139.893 407.557 138.888 409.474 138.795C411.391 138.702 413.018 139.583 413.194 143.167Z" fill="white" stroke="#263238" stroke-linecap="round" stroke-linejoin="round"/>
<path d="M393.943 138.764C393.943 138.764 396.492 135.034 401.009 137.883" stroke="#263238" stroke-linecap="round" stroke-linejoin="round"/>
<path d="M406.376 137.873C407.18 136.951 408.278 136.336 409.485 136.132" stroke="#263238" stroke-linecap="round" stroke-linejoin="round"/>
<path d="M393.943 144.338C392.447 144.757 390.913 145.021 389.363 145.126C385.851 144.784 376.277 140.132 376.277 140.132" stroke="#263238" stroke-linecap="round" stroke-linejoin="round"/>
<path d="M406.252 142.888L402.584 143.52" stroke="#263238" stroke-linecap="round" stroke-linejoin="round"/>
<path d="M400.346 144.411C400.242 145.52 399.579 146.359 398.854 146.297C398.129 146.234 397.642 145.261 397.735 144.224C397.828 143.188 398.512 142.277 399.227 142.339C399.942 142.401 400.45 143.302 400.346 144.411Z" fill="#263238"/>
<path d="M409.277 143.199C409.174 144.235 408.676 145.115 408.158 145.064C407.64 145.012 407.309 144.121 407.412 143.043C407.516 141.966 408.003 141.137 408.521 141.178C409.039 141.22 409.371 142.131 409.277 143.199Z" fill="#263238"/>
<path d="M368.341 267.998C370.154 263.315 382.328 264.092 382.328 264.092" stroke="#263238" stroke-linecap="round" stroke-linejoin="round"/>
<path d="M397.383 270.36C384.483 273.468 370.444 275.696 368.589 271.313" stroke="#263238" stroke-linecap="round" stroke-linejoin="round"/>
<path d="M419.649 264.092C419.649 264.092 418.302 264.527 416.053 265.221" stroke="#263238" stroke-linecap="round" stroke-linejoin="round"/>
<path d="M684.675 457.906H229.595V397.315C229.595 397.315 317.778 363.123 431.636 363.123C570.444 363.175 684.675 457.906 684.675 457.906Z" fill="#7E8AF5" stroke="#263238" stroke-linecap="round" stroke-linejoin="round"/>
<path opacity="0.2" d="M497.17 380.074L443.448 372.831L388.804 382.063L442.526 389.316L497.17 380.074Z" fill="black"/>
<path d="M490.591 379.566L440.671 372.831L389.892 381.41L439.811 388.145L490.591 379.566Z" fill="white" stroke="#263238" stroke-linecap="round" stroke-linejoin="round"/>
<path d="M497.17 377.545L447.25 370.811L396.471 379.39L446.39 386.124L497.17 377.545Z" fill="white" stroke="#263238" stroke-linecap="round" stroke-linejoin="round"/>
<path opacity="0.2" d="M394.606 414.835C404.076 414.835 411.753 413.267 411.753 411.333C411.753 409.399 404.076 407.831 394.606 407.831C385.135 407.831 377.458 409.399 377.458 411.333C377.458 413.267 385.135 414.835 394.606 414.835Z" fill="black"/>
<path d="M404.521 410.38C404.521 411.354 398.989 412.141 392.15 412.141C385.312 412.141 379.789 411.354 379.789 410.38V387.171C379.789 386.197 385.322 385.41 392.15 385.41C398.978 385.41 404.521 386.197 404.521 387.171V410.38Z" fill="white" stroke="#263238" stroke-linecap="round" stroke-linejoin="round"/>
<path d="M404.521 387.171C404.521 388.145 398.989 388.932 392.15 388.932C385.312 388.932 379.789 388.145 379.789 387.171C379.789 386.197 385.322 385.41 392.15 385.41C398.978 385.41 404.521 386.197 404.521 387.171Z" fill="white" stroke="#263238" stroke-linecap="round" stroke-linejoin="round"/>
<path d="M403.029 408.183C402.702 408.19 402.384 408.078 402.133 407.869C401.881 407.66 401.714 407.366 401.662 407.044C401.639 406.868 401.651 406.689 401.698 406.518C401.746 406.347 401.827 406.187 401.937 406.048C402.047 405.909 402.184 405.793 402.34 405.708C402.495 405.623 402.666 405.569 402.843 405.552C403.154 405.552 410.655 404.391 410.655 397.636C410.655 395.937 410.199 394.786 409.308 394.206C407.64 393.17 404.521 393.978 403.558 394.362C403.22 394.496 402.844 394.495 402.507 394.36C402.169 394.225 401.897 393.966 401.745 393.636C401.678 393.474 401.645 393.3 401.647 393.125C401.649 392.949 401.687 392.776 401.758 392.616C401.828 392.455 401.93 392.311 402.058 392.19C402.186 392.07 402.336 391.977 402.501 391.916C403.029 391.709 407.682 389.989 410.852 392.02C412.562 393.118 413.432 395.004 413.432 397.636C413.432 404.888 406.759 407.696 403.226 408.173L403.029 408.183Z" fill="white" stroke="#263238" stroke-linecap="round" stroke-linejoin="round"/>
<path d="M420.799 393.077C419.98 393.864 419.421 394.61 419.566 394.755C419.711 394.9 420.498 394.362 421.327 393.574C422.156 392.787 422.705 392.041 422.56 391.906C422.415 391.771 421.628 392.3 420.799 393.077Z" fill="#263238" stroke="#263238" stroke-linecap="round" stroke-linejoin="round"/>
<path d="M425.254 385.959C421.866 389.181 419.918 392.548 420.902 393.481C421.887 394.413 425.44 392.569 428.829 389.337L450.659 368.563C454.047 365.34 455.995 361.963 455.011 361.03C454.027 360.098 450.483 361.942 447.095 365.175L425.254 385.959Z" fill="#7E8AF5" stroke="#263238" stroke-linecap="round" stroke-linejoin="round"/>
<path d="M447.458 371.619L446.556 372.479C445.924 371.971 445.303 371.443 444.702 370.852C444.101 370.262 443.521 369.682 442.992 369.091L443.894 368.231C444.422 368.822 444.992 369.412 445.603 369.992C446.214 370.573 446.836 371.111 447.458 371.619Z" fill="#263238" stroke="#263238" stroke-linecap="round" stroke-linejoin="round"/>
<path d="M452.327 361.372C452.327 361.372 450.815 360.439 447.354 362.988C443.894 365.537 440.671 369.941 439.065 369.795" stroke="#263238" stroke-linecap="round" stroke-linejoin="round"/>
<path d="M410.282 404.267C410.282 404.267 412.8 398.185 412.8 395.077C412.8 391.968 419.348 381.493 424.197 379.649C429.046 377.805 445.375 370.106 446.567 373.225C447.758 376.344 440.412 380.208 438.868 380.934C437.151 382.012 435.535 383.243 434.04 384.612C434.04 384.612 441.51 383.12 442.329 380.758C443.148 378.395 445.437 375.245 446.681 377.266C447.924 379.286 447.354 384.425 445.417 388.373V391.036C445.417 391.036 447.541 394.144 445.23 396.724L443.448 398.558C443.448 398.558 446.556 401.666 442.329 404.256C442.329 404.256 444.267 407.013 440.785 409.758C440.785 409.758 433.45 413.25 428.818 414.348C424.187 415.446 420.136 422.067 420.136 422.067L410.282 404.267Z" fill="white" stroke="#263238" stroke-linecap="round" stroke-linejoin="round"/>
<path d="M268.408 298.946L280.51 271.935L272.718 249.307L271.941 223.352L293.264 211.395L312.09 208.225L319.768 212.67L322.959 220.068C322.959 220.068 332.533 239.422 331.051 243.142C329.569 246.861 328.471 250.394 328.471 250.394C328.471 250.394 332.989 260.445 335.662 263.636C338.335 266.827 330.046 264.89 329.072 270.64C328.098 276.39 329.259 291.652 322.151 292.346C315.043 293.041 310.754 290.834 310.101 296.833C309.448 302.832 302.154 318.063 302.154 318.063L268.408 298.946Z" fill="white" stroke="#263238" stroke-linecap="round" stroke-linejoin="round"/>
<path d="M327.777 190.963C326.741 187.482 316.763 192.321 315.727 199.78C315.727 199.78 314.452 188.383 311.158 187.295C308.277 186.353 304.299 191.523 305.739 197.656C305.739 197.656 294.974 191.999 291.503 193.315C288.933 194.289 288.032 199.304 293.575 203.676C293.575 203.676 259.922 196.196 261.891 225.507C261.891 225.507 243.386 239.298 277.619 278.473C277.619 278.473 285.742 276.67 287.98 275.365C289.275 274.608 300.102 266.04 300.102 266.04C296.994 264.931 291.586 261.761 290.114 257.937C288.249 253.099 290.746 247.317 295.295 246.54C298.02 246.074 299.564 247.286 301.512 249.462C301.512 249.462 297.025 243.794 297.305 241.598C297.657 238.852 304.433 235.941 304.931 233.216C305.159 231.931 302.144 229.403 302.941 228.336C307.003 222.917 326.409 229.196 324.42 211.229C322.431 193.263 329.227 195.843 327.777 190.963Z" fill="#263238" stroke="#263238" stroke-linecap="round" stroke-linejoin="round"/>
<path d="M327.062 248.985C327.062 250.405 326.782 251.565 326.326 251.575C325.87 251.586 325.487 250.446 325.446 249.027C325.404 247.607 325.725 246.447 326.171 246.436C326.616 246.426 327.02 247.586 327.062 248.985Z" fill="#263238"/>
<path d="M323.664 243.887C323.664 243.887 324.845 240.251 327.217 240.012" stroke="#263238" stroke-linecap="round" stroke-linejoin="round"/>
<path d="M298.237 215.902C309.863 216.824 300.248 199.76 300.248 199.76" stroke="#7F7F7F" stroke-linecap="round" stroke-linejoin="round"/>
<path d="M268.75 223.891C268.75 223.891 277.899 210.587 294.746 215.239" stroke="#7F7F7F" stroke-linecap="round" stroke-linejoin="round"/>
<path d="M314.162 208.277C315.302 214.182 314.162 222.078 300.589 223.031" stroke="#7F7F7F" stroke-linecap="round" stroke-linejoin="round"/>
<path d="M311.842 201.718C312.312 202.615 312.721 203.542 313.064 204.495" stroke="#7F7F7F" stroke-linecap="round" stroke-linejoin="round"/>
<path d="M324.399 457.906C324.399 457.906 334.885 349.923 322.451 329.543C310.018 309.163 272.853 285.249 259.56 295.61C213.432 331.729 213.277 362.574 210.344 457.886L324.399 457.906Z" fill="#263238" stroke="#263238" stroke-linecap="round" stroke-linejoin="round"/>
<path d="M314.276 325.657C314.276 325.657 328.937 329.512 337.071 351.56C344.562 371.795 358.176 398.475 367.263 411.768C367.982 412.788 368.974 413.583 370.125 414.064C371.276 414.544 372.54 414.689 373.77 414.483C377.769 413.851 385.395 413.364 392.699 409.396C399.465 405.717 405.444 401.687 412.966 402.785C420.488 403.883 425.202 410.877 423.99 420.979C422.83 430.615 379.51 455.678 353.928 455.678C333.061 455.678 313.986 398.402 307.614 381.327C301.242 364.252 294.59 326.787 314.276 325.657Z" fill="#263238" stroke="#263238" stroke-linecap="round" stroke-linejoin="round"/>
<path d="M306.557 327.957C308.465 326.547 310.755 325.745 313.126 325.657" stroke="#7F7F7F" stroke-linecap="round" stroke-linejoin="round"/>
<path d="M301.449 336.018C301.849 334.652 302.394 333.332 303.076 332.081" stroke="#7F7F7F" stroke-linecap="round" stroke-linejoin="round"/>
<path d="M322.876 417.456C316.68 405.752 311.2 393.684 306.464 381.317C302.496 370.676 298.414 352.13 300.662 339.396" stroke="#7F7F7F" stroke-linecap="round" stroke-linejoin="round"/>
<path d="M313.789 321.834C313.789 321.834 319.581 313.39 313.789 306.406C307.998 299.423 281.566 284.337 271.682 288.057C270.936 288.302 270.248 288.695 269.659 289.212C269.069 289.73 268.59 290.362 268.252 291.07C267.913 291.777 267.721 292.546 267.687 293.33C267.653 294.114 267.779 294.897 268.056 295.631C268.056 295.631 287.928 296.501 313.789 321.834Z" fill="#263238" stroke="#263238" stroke-linecap="round" stroke-linejoin="round"/>
<path d="M310.578 319.441C311.396 320.207 312.225 320.995 313.054 321.813" stroke="#7F7F7F" stroke-linecap="round" stroke-linejoin="round"/>
<path d="M274.842 297.185C281.712 299.257 292.819 304.137 306.029 315.4" stroke="#7F7F7F" stroke-linecap="round" stroke-linejoin="round"/>
<path d="M267.351 295.61C268.516 295.698 269.672 295.871 270.812 296.128" stroke="#7F7F7F" stroke-linecap="round" stroke-linejoin="round"/>
<path d="M373.034 428.678C373.034 428.678 373.034 422.627 369.853 420.969C366.672 419.311 369.273 428.678 366.092 436.397" stroke="#7F7F7F" stroke-linecap="round" stroke-linejoin="round"/>
<path d="M339.454 362.594C339.454 362.594 342.065 362.864 344.375 388.197" stroke="#7F7F7F" stroke-linecap="round" stroke-linejoin="round"/>
<path d="M300.051 265.978L302.268 266.392C302.341 269.51 303.08 272.576 304.433 275.385C306.506 279.24 309.448 279.975 316.359 287.477C322.804 294.46 325.767 289.912 326.14 289.259C325.791 290.081 325.236 290.8 324.528 291.345C323.82 291.889 322.983 292.241 322.099 292.367C315.002 293.061 310.702 290.855 310.049 296.854C308.909 292.212 305.2 286.627 302.268 279.644C300.486 275.32 299.728 270.643 300.051 265.978Z" fill="#263238" stroke="#263238" stroke-linecap="round" stroke-linejoin="round"/>
<path opacity="0.3" d="M303.076 261.615C303.895 256.839 298.932 247.11 301.532 249.369C304.133 251.627 307.521 259.958 311.572 263.128C315.623 266.299 315.24 273.728 321.032 270.609C323.556 269.202 326.528 268.831 329.321 269.573C329.189 269.907 329.096 270.254 329.041 270.609C328.077 276.39 329.227 291.621 322.12 292.315C320.072 292.468 318.018 292.513 315.965 292.45C311.945 288.243 306.205 281.996 304.009 278.369C300.455 272.557 302.268 266.392 303.076 261.615Z" fill="#263238"/>
<path d="M327.725 275.427C327.725 275.427 324.088 273.841 324.161 271.562" stroke="#263238" stroke-linecap="round" stroke-linejoin="round"/>
<defs>
<linearGradient id="paint0_linear_107_2" x1="138.854" y1="81.313" x2="301.179" y2="357.086" gradientUnits="userSpaceOnUse">
<stop stop-color="#76BDFF"/>
<stop offset="1" stop-color="#FF94EE"/>
</linearGradient>
</defs>
</svg>
